<svg width="25" height="25" viewBox="0 0 25 25" fill="none" xmlns="http://www.w3.org/2000/svg">
<path d="M17.1944 0C21.9877 0 25 2.99033 25 7.81662V11.0268C25 11.2795 24.8989 11.5217 24.7192 11.6993C24.5395 11.8769 24.2962 11.9752 24.0435 11.9723V11.9503C23.5153 11.9503 23.0871 11.5221 23.0871 10.9938V7.81662C23.0871 4.00176 20.9982 1.91293 17.1944 1.91293H7.81662C4.01275 1.91293 1.91293 4.01275 1.91293 7.81662V17.1944C1.91293 20.9872 4.01275 23.0871 7.81662 23.0871H17.1944C20.9982 23.0871 23.0871 20.9872 23.0871 17.1944C23.0871 16.6661 23.5153 16.2379 24.0435 16.2379C24.5718 16.2379 25 16.6661 25 17.1944C25 22.0097 22.0097 25 17.1944 25H7.81662C2.99033 25 0 22.0097 0 17.1944V7.81662C0 2.99033 2.99033 0 7.81662 0H17.1944ZM12.5879 14.5558C12.8427 14.5615 13.0843 14.6697 13.2582 14.856C13.432 15.0422 13.5233 15.2908 13.5114 15.5453V16.7546L13.4944 16.9048C13.4561 17.1016 13.3566 17.2829 13.2081 17.4215C13.0225 17.5947 12.7757 17.687 12.522 17.6781C11.9963 17.6543 11.586 17.2147 11.5985 16.6887V15.4793C11.6071 15.2256 11.7162 14.9857 11.9018 14.8125C12.0874 14.6393 12.3342 14.5469 12.5879 14.5558ZM12.544 7.31091C12.6504 7.31088 12.755 7.32879 12.8536 7.36296C13.2472 7.48149 13.5334 7.8465 13.5334 8.27836L13.5325 11.2675L16.7876 11.2687C16.8972 11.2674 17.0051 11.2852 17.1067 11.3202C17.2549 11.3654 17.3923 11.4474 17.504 11.5605C17.6817 11.7402 17.78 11.9835 17.7771 12.2361C17.7771 12.7559 17.3622 13.1807 16.8426 13.1926H8.32234C8.23284 13.1906 8.1464 13.1764 8.06458 13.1518C7.64644 13.0477 7.33786 12.6727 7.33283 12.2252C7.32996 11.9725 7.42827 11.7292 7.6059 11.5495C7.78353 11.3698 8.02569 11.2687 8.27836 11.2687H11.5765V8.26737C11.5883 7.73984 12.0163 7.3167 12.544 7.31091Z" fill="black"/>
</svg>
