<svg width="25" height="25" viewBox="0 0 25 25" fill="none" xmlns="http://www.w3.org/2000/svg">
<path d="M18.325 0C22.575 0 25 2.4 25 6.6625V18.3375C25 22.575 22.5875 25 18.3375 25H6.6625C2.4 25 0 22.575 0 18.3375V6.6625C0 2.4 2.4 0 6.6625 0H18.325ZM12.4875 6.8875C11.9125 6.8875 11.45 7.35 11.45 7.925V11.45H7.9125C7.6375 11.45 7.375 11.5625 7.175 11.75C6.9875 11.95 6.875 12.2112 6.875 12.4875C6.875 13.0625 7.3375 13.525 7.9125 13.5375H11.45V17.075C11.45 17.65 11.9125 18.1125 12.4875 18.1125C13.0625 18.1125 13.525 17.65 13.525 17.075V13.5375H17.075C17.65 13.525 18.1125 13.0625 18.1125 12.4875C18.1125 11.9125 17.65 11.45 17.075 11.45H13.525V7.925C13.525 7.35 13.0625 6.8875 12.4875 6.8875Z" fill="#1C6758"/>
</svg>
