<svg width="25" height="25" viewBox="0 0 25 25" fill="none" xmlns="http://www.w3.org/2000/svg">
<path d="M12.5084 0C14.5306 0 16.5451 0.498833 18.335 1.44254C24.429 4.65797 26.7726 12.2319 23.5594 18.328C21.3677 22.4849 17.0526 25 12.4941 25C11.6036 25 10.7042 24.9042 9.80927 24.706C9.3051 24.5937 8.98697 24.0937 9.09815 23.5894C9.20933 23.0851 9.70799 22.769 10.2155 22.878C14.8708 23.9131 19.6769 21.6789 21.9038 17.4547C24.636 12.2726 22.6435 5.83183 17.4621 3.09871C15.9407 2.29595 14.2279 1.872 12.5073 1.872C6.63786 1.872 1.87138 6.63899 1.87138 12.4983C1.86918 14.2052 2.28528 15.9043 3.07456 17.414L3.31453 17.8831C3.60845 18.4337 3.67339 19.1175 3.48295 19.7364C3.21986 20.4301 3.0008 21.1051 2.82027 21.7769C3.52258 21.5654 4.38011 21.2538 4.99986 21.0281L5.25415 20.9367C5.7352 20.7572 6.27569 21.0115 6.45182 21.4983C6.62795 21.9839 6.37586 22.5213 5.89041 22.6963L5.63943 22.7877C4.71255 23.1236 3.44443 23.585 2.588 23.7766C2.51535 23.792 2.43719 23.8019 2.36564 23.7997C1.79102 23.7997 1.44097 23.5674 1.24833 23.3714C0.952209 23.0707 0.811306 22.649 0.827819 22.1182C0.83002 22.0577 0.837726 21.9949 0.852036 21.9343C1.0744 20.9873 1.36391 20.0425 1.71396 19.1274C1.73928 19.0382 1.72387 18.8764 1.65232 18.7409L1.41124 18.2729C0.48767 16.5044 -0.00218688 14.5036 7.33919e-06 12.4972C7.33919e-06 5.60609 5.6053 0 12.4941 0H12.5084ZM12.4946 11.0119C13.3147 11.0119 13.9807 11.6792 13.9807 12.4985C13.9807 13.3177 13.3147 13.985 12.4946 13.985C11.6745 13.985 11.0085 13.3177 11.0085 12.4985C11.0085 11.6792 11.6745 11.0119 12.4946 11.0119ZM17.9986 11.0119C18.8187 11.0119 19.4847 11.6792 19.4847 12.4985C19.4847 13.3177 18.8187 13.985 17.9986 13.985C17.1785 13.985 16.5125 13.3177 16.5125 12.4985C16.5125 11.6792 17.1785 11.0119 17.9986 11.0119ZM6.99044 11.0123C7.81054 11.0123 8.47653 11.6785 8.47653 12.4989C8.47653 13.3182 7.81054 13.9844 6.99044 13.9844C6.17034 13.9844 5.50436 13.3182 5.50436 12.4989C5.50436 11.6785 6.17034 11.0123 6.99044 11.0123Z" fill="black"/>
</svg>
