<svg width="18" height="22" viewBox="0 0 18 22" fill="none" xmlns="http://www.w3.org/2000/svg">
<path fill-rule="evenodd" clip-rule="evenodd" d="M7.12754 19.1949C7.63162 19.7745 8.27875 20.093 8.95021 20.093H8.95119C9.62556 20.093 10.2756 19.7745 10.7807 19.1939C11.0512 18.8854 11.5125 18.8603 11.8112 19.1386C12.1109 19.4169 12.1353 19.8941 11.8657 20.2025C11.0794 21.1037 10.045 21.6 8.95119 21.6H8.94924C7.85836 21.599 6.82587 21.1027 6.0425 20.2015C5.77295 19.8931 5.79727 19.4159 6.097 19.1386C6.39672 18.8593 6.85798 18.8844 7.12754 19.1949ZM8.99867 0C13.3242 0 16.23 3.4781 16.23 6.72614C16.23 8.39687 16.6416 9.10515 17.0786 9.85663C17.5106 10.5981 18.0001 11.44 18.0001 13.0313C17.6605 17.0972 13.549 17.4287 8.99867 17.4287C4.44832 17.4287 0.335878 17.0972 0.000134951 13.0956C-0.00277144 11.44 0.486713 10.5981 0.918782 9.85663L1.07131 9.59156C1.44687 8.92518 1.76735 8.20032 1.76735 6.72614C1.76735 3.4781 4.67311 0 8.99867 0ZM8.99867 1.50698C5.59759 1.50698 3.22704 4.25771 3.22704 6.72614C3.22704 8.81481 2.66555 9.78028 2.16925 10.6322C1.77124 11.3164 1.45692 11.8569 1.45692 13.0313C1.61944 14.9261 2.83098 15.9217 8.99867 15.9217C15.1323 15.9217 16.3818 14.8819 16.5433 12.966C16.5404 11.8569 16.2261 11.3164 15.8281 10.6322C15.3318 9.78028 14.7703 8.81481 14.7703 6.72614C14.7703 4.25771 12.3998 1.50698 8.99867 1.50698Z" fill="#006175"/>
</svg>
