<svg width="25" height="25" viewBox="0 0 25 25" fill="none" xmlns="http://www.w3.org/2000/svg">
<path fill-rule="evenodd" clip-rule="evenodd" d="M9.74845 4.92334C10.2666 5.32157 10.5645 5.91541 10.5645 6.55257C10.5645 11.6886 10.7416 13.0707 11.4655 13.5966C11.9406 13.9397 12.5915 13.9362 14.7848 13.8765C15.8043 13.8472 17.1097 13.8097 18.8196 13.8097C19.5017 13.8097 20.1442 14.0955 20.5798 14.5933C20.9842 15.056 21.1613 15.6603 21.068 16.2553C20.2687 21.3211 15.8653 25 10.598 25C4.75397 25 0 20.3466 0 14.6273C0 10.0921 3.50355 5.557 7.81001 4.51926C8.48248 4.35879 9.2052 4.50872 9.74845 4.92334ZM8.35444 6.21174C8.31615 6.21174 8.27786 6.21642 8.23957 6.22579C4.68576 7.08199 1.79485 10.8511 1.79485 14.6273C1.79485 19.3779 5.74353 23.2431 10.598 23.2431C14.9739 23.2431 18.6306 20.192 19.2935 15.9871C19.2983 15.952 19.315 15.8501 19.2169 15.7365C19.1236 15.6299 18.9752 15.5666 18.8196 15.5666C17.1313 15.5666 15.8426 15.6041 14.8363 15.6322C12.4 15.7037 11.3925 15.7306 10.397 15.0079C8.97344 13.9756 8.78627 12.2402 8.77082 7.37016L8.76965 6.55257C8.76965 6.45419 8.72658 6.3722 8.64042 6.30661C8.56025 6.24453 8.45855 6.21174 8.35444 6.21174ZM21.5985 3.20194C23.7021 5.25985 25.0375 7.9643 24.9992 10.0925C24.9848 10.9229 24.3686 11.6163 23.5358 11.7393C21.9109 11.9794 20.0083 12.052 18.3247 12.052C16.7572 12.052 15.3776 11.9899 14.5843 11.9454C13.5863 11.888 12.7918 11.1091 12.7344 10.1323C12.641 8.5839 12.4388 4.64962 12.5824 1.60667C12.6219 0.722368 13.3518 0.0184375 14.2444 0.00321109C16.8015 -0.0694073 19.4399 1.09249 21.5985 3.20194ZM14.3976 1.75894H14.3713C14.2396 4.70935 14.4347 8.52065 14.5256 10.0304C14.5304 10.1206 14.5974 10.1862 14.6884 10.1909C15.9184 10.26 20.1567 10.4521 23.2044 10.0128C23.2115 8.36839 22.0616 6.1383 20.3302 4.44465C18.5545 2.70883 16.4533 1.75894 14.3976 1.75894Z" fill="black"/>
</svg>
