<svg width="25" height="25" viewBox="0 0 25 25" fill="none" xmlns="http://www.w3.org/2000/svg">
<path d="M8.69509 3.69938C9.30775 3.5847 9.92202 3.8906 10.1893 4.44349C10.2559 4.54382 10.3091 4.65204 10.3478 4.76557C10.5176 7.38662 10.6987 9.96324 10.8685 12.5399C10.8647 12.8077 10.9068 13.0743 10.993 13.3284C11.1962 13.8284 11.7017 14.1457 12.2496 14.1169L20.5698 13.5838L20.6264 13.6061L20.7782 13.617C21.079 13.6555 21.3594 13.7928 21.5723 14.0088C21.8207 14.2608 21.9569 14.5994 21.951 14.9499C21.6229 19.7275 18.1202 23.7194 13.3535 24.7478C8.58672 25.7762 3.70022 23.5943 1.35973 19.3924C0.671522 18.1821 0.236628 16.8492 0.0805675 15.4719C0.0200392 15.0638 -0.006462 14.6515 0.00132748 14.2391C0.017103 9.15883 3.6341 4.77383 8.69509 3.69938ZM13.6419 0.00103112C19.3554 0.172068 24.1305 4.31975 24.9959 9.86329C25.0014 9.89639 25.0014 9.93014 24.9959 9.96324L24.9943 10.1197C24.9755 10.3266 24.8906 10.5239 24.7495 10.6823C24.5732 10.8803 24.3237 11.0012 24.0563 11.0183L14.457 11.6514L14.2988 11.6545C14.0368 11.6417 13.7855 11.5398 13.5898 11.3637C13.3549 11.1522 13.2218 10.8535 13.2231 10.5408L12.5778 1.11165V0.956159C12.5896 0.69097 12.7084 0.441254 12.908 0.262078C13.1076 0.0829028 13.3717 -0.0110165 13.6419 0.00103112Z" fill="#1C6758"/>
</svg>
